<svg version="1.2" xmlns="http://www.w3.org/2000/svg" viewBox="0 0 512 512" width="512" height="512"><style>.a{fill:#fff;stroke:#e42028;stroke-miterlimit:10;stroke-width:6}.b{fill:#e42028}</style><path fill-rule="evenodd" class="a" d="m230.5 269c-26.3 0-47.5-21.5-47.5-48 0-26.5 21.2-48 47.5-48 26.3 0 47.5 21.5 47.5 48 0 26.5-21.2 48-47.5 48z"/><path fill-rule="evenodd" class="a" d="m276.6 256.6c4.9 3.7 56.6 40.7 51.7 37.1-8.2-6.2-55.2-39.7-51.7-37.1z"/><path class="b" d="m84.4 331.8c-0.2-7.9-12.6-5.4-12.6-9.9 0-1.5 1.2-2.5 3.7-2.5 2.5 0 3.9 1.4 4.1 3.3h4.6c-0.3-4.4-3.6-7.1-8.6-7.1-5.2 0-8.4 2.8-8.4 6.4 0 8 12.8 5.6 12.8 9.9 0 1.5-1.4 2.6-4.1 2.6-2.5 0-4.2-1.5-4.4-3.3h-4.7c0.2 4 3.9 7.2 9.2 7.2 5.2 0 8.4-2.8 8.4-6.6zm5.3 0.1c0 4.5 2.5 6.1 6.4 6.1h3.6v-3.8h-2.8c-1.9 0-2.6-0.7-2.6-2.3v-12.2h5.4v-3.7h-5.4v-5.5h-4.6v5.5h-2.6v3.7h2.6zm23.6-12.5c3.4 0 6.1 2.2 6.1 5.6h-12.2c0.5-3.5 3-5.6 6.1-5.6zm10.3 12h-4.9c-0.9 1.8-2.4 3.1-5.2 3.1-3.4 0-6-2.2-6.3-5.8h16.8c0.2-0.8 0.2-1.5 0.2-2.3 0-6.4-4.4-10.8-10.7-10.8-6.5 0-11 4.4-11 11.4 0 6.9 4.7 11.4 11 11.4 5.4 0 8.9-3.1 10.1-7zm36.6 6.6h4.6v-13c0-6.2-4-9.4-9.1-9.4-3.2 0-6.3 1.7-7.7 4.4-1.5-2.9-4.4-4.4-7.9-4.4-2.7 0-5.1 1.1-6.5 2.9v-2.5h-4.6v22h4.6v-12.3c0-4.1 2.2-6.1 5.5-6.1 3.3 0 5.5 2 5.5 6.1v12.3h4.6v-12.3c0-4.1 2.2-6.1 5.5-6.1 3.3 0 5.5 2 5.5 6.1zm26.2-6.2c-0.2-7.9-12.6-5.5-12.6-9.9 0-1.5 1.2-2.5 3.7-2.5 2.5 0 3.9 1.3 4.1 3.3h4.6c-0.3-4.4-3.6-7.1-8.6-7.1-5.2 0-8.4 2.8-8.4 6.3 0 8.1 12.8 5.6 12.8 10 0 1.5-1.4 2.6-4.1 2.6-2.5 0-4.2-1.5-4.4-3.3h-4.7c0.2 4 3.9 7.1 9.2 7.1 5.2 0 8.4-2.8 8.4-6.5zm14.9-12.4c3.4 0 6.1 2.2 6.1 5.6h-12.2c0.5-3.5 3-5.6 6.1-5.6zm10.3 12h-4.9c-0.9 1.7-2.4 3.1-5.2 3.1-3.4 0-6-2.2-6.3-5.8h16.8c0.2-0.8 0.2-1.5 0.2-2.3 0-6.5-4.4-10.8-10.7-10.8-6.5 0-11 4.4-11 11.3 0 7 4.7 11.4 11 11.4 5.4 0 8.9-3 10.1-6.9zm3.9-4.5c0 6.8 4.6 11.4 10.3 11.4 3.7 0 6.3-1.7 7.7-3.6v3.3h4.6v-22.1h-4.6v3.2c-1.3-1.8-3.9-3.5-7.6-3.5-5.8 0-10.4 4.5-10.4 11.3zm18 0c0 4.8-3.2 7.5-6.7 7.5-3.4 0-6.6-2.8-6.6-7.5 0-4.8 3.2-7.4 6.6-7.4 3.5 0 6.7 2.7 6.7 7.4zm15.1-0.5c0-4.7 2-6.1 5.4-6.1h1.2v-4.7c-3.2 0-5.4 1.3-6.6 3.5v-3.2h-4.6v22.1h4.6zm8.9 0.5c0 7 4.5 11.4 10.8 11.4 5.4 0 8.9-3 10.1-7.3h-4.9c-0.8 2.3-2.5 3.5-5.2 3.5-3.7 0-6.1-2.7-6.1-7.6 0-4.8 2.4-7.5 6.1-7.5 2.7 0 4.5 1.4 5.2 3.5h4.9c-1.2-4.6-4.7-7.3-10.1-7.3-6.3 0-10.8 4.5-10.8 11.3zm25.5 11.1h4.6v-12.3c0-4.1 2.2-6.2 5.5-6.2 3.3 0 5.5 2.1 5.5 6.2v12.3h4.6v-13c0-6.2-3.9-9.4-8.8-9.4-2.8 0-5.3 1.1-6.8 2.9v-10.1h-4.6zm35.3-18.6c3.4 0 6.1 2.2 6.1 5.6h-12.2c0.5-3.5 3-5.6 6.1-5.6zm10.3 12h-4.9c-0.9 1.7-2.4 3.1-5.2 3.1-3.4 0-6-2.2-6.3-5.8h16.8c0.2-0.8 0.2-1.5 0.2-2.3 0-6.5-4.4-10.8-10.7-10.8-6.5 0-11 4.4-11 11.3 0 7 4.7 11.4 11 11.4 5.4 0 8.9-3 10.1-6.9zm10-5c0-4.7 2-6.1 5.4-6.1h1.2v-4.7c-3.2 0-5.4 1.3-6.6 3.5v-3.2h-4.6v22.1h4.6zm15.1 8.9c0-1.6-1.3-2.9-2.9-2.9-1.6 0-2.9 1.3-2.9 2.9 0 1.7 1.3 3 2.9 3 1.6 0 2.9-1.3 2.9-3zm3.8-8.4c0 7 4.5 11.4 10.8 11.4 5.4 0 8.9-3 10.1-7.3h-4.9c-0.8 2.3-2.5 3.5-5.2 3.5-3.7 0-6.1-2.7-6.1-7.6 0-4.8 2.4-7.5 6.1-7.5 2.7 0 4.5 1.4 5.2 3.5h4.9c-1.2-4.6-4.7-7.3-10.1-7.3-6.3 0-10.8 4.5-10.8 11.3zm46.5 0c0-6.9-5-11.3-11.2-11.3-6.3 0-11.3 4.4-11.3 11.3 0 7 4.8 11.4 11.1 11.4 6.3 0 11.4-4.4 11.4-11.4zm-17.8 0c0-5 3-7.4 6.5-7.4 3.4 0 6.6 2.4 6.6 7.4 0 5-3.3 7.5-6.7 7.5-3.5 0-6.4-2.5-6.4-7.5zm53 11.1h4.6v-13c0-6.2-4-9.4-9.1-9.4-3.2 0-6.3 1.7-7.7 4.3-1.5-2.8-4.4-4.3-7.9-4.3-2.7 0-5.1 1.1-6.5 2.9v-2.6h-4.6v22.1h4.6v-12.3c0-4.1 2.2-6.2 5.5-6.2 3.3 0 5.5 2.1 5.5 6.2v12.3h4.6v-12.3c0-4.1 2.2-6.2 5.5-6.2 3.3 0 5.5 2.1 5.5 6.2z"/></svg>